<svg id="レイヤー_1" data-name="レイヤー 1" xmlns="http://www.w3.org/2000/svg" viewBox="0 0 333.12 65.97"><defs><style>.cls-1{fill:#c8000f;}</style></defs><path d="M331.87,12.07c-.79,0-1.12.76-1.12,1.47,0,1.69.12,9.35.37,11.81.29,2.88.49,10.26.53,11.7l0,1.18c0,.26,0,.42.2.42s.19-.16.2-.42l0-1.18c0-1.44.24-8.82.53-11.7.26-2.46.37-10.12.37-11.81,0-.71-.33-1.47-1.12-1.47" transform="translate(0 0)"/><path d="M331.84,45.59c-.57,0-1.22-.92-1.22-2.22,0-1.14.56-2.11,1.22-2.11s1.28,1,1.28,2.11-.59,2.22-1.28,2.22" transform="translate(0 0)"/><path d="M142.78,43.58a11.9,11.9,0,0,1-2.89-.63,14.68,14.68,0,0,1-7-6.42l-.19-.39,0,.43a10.42,10.42,0,0,0,1.14,3.52,11.81,11.81,0,0,0,6.34,5.55l.23.08.13-.24a6.06,6.06,0,0,1,1.75-1.4c.62-.33.51-.5.51-.5" transform="translate(0 0)"/><path d="M120.69,22.71c.29-.17,1.13-.8,2.18-2.92a11.57,11.57,0,0,0,.71-2.2.82.82,0,0,1,.82-.72h14.49a.49.49,0,0,1,.43.74,24.71,24.71,0,0,1-2.53,3.5A13.35,13.35,0,0,0,141.38,18c.47,0,1.24.42.84-.58a11.19,11.19,0,0,0-1.42-2.1l-.23-.25-.43.9a.67.67,0,0,1-.62.39h-6.25a.83.83,0,0,1-.82-.83V13.79a1.53,1.53,0,0,1,.68-1.24c.19-.16.42-.31.47-.43s0-.11,0-.15c-.26-.16-2.83-.94-3.29-1.08a17.65,17.65,0,0,1,.16,2.17v2.51a.83.83,0,0,1-.83.83h-5.25a.7.7,0,0,1-.69-.64l0-.65s-1.14,3.69-3.66,5.28c-.85.34.31,2,.57,2.31a.11.11,0,0,0,.15,0" transform="translate(0 0)"/><path d="M141,33.87h.12a.23.23,0,0,0,.19-.07.41.41,0,0,0,0-.26l-1.73-1.63a20,20,0,0,1-1.95,1.57h-4.78a.82.82,0,0,1-.82-.89c0-.1,0-.19,0-.29,0-.77.12-1.78.17-2.69a.82.82,0,0,1,.82-.78h5.16a.22.22,0,0,0,.19-.07c.05-.08,0-.23,0-.25l-1.72-1.63a20.15,20.15,0,0,1-2,1.56h-1.34a1.1,1.1,0,0,1-1.1-1.13c0-.75,0-1.74,0-2.55a.83.83,0,0,1,.83-.81h5.53a.21.21,0,0,0,.19-.07c.06-.08,0-.23,0-.26L137.23,22a19.66,19.66,0,0,1-1.94,1.57h-2a.84.84,0,0,1-.83-.84c0-.61,0-1.14,0-1.57A1.49,1.49,0,0,1,133,20c.16-.11.43-.31.48-.45s0-.18-.05-.23c-.27-.17-2.94-.93-3.35-1.05l-.1,0v.09a.76.76,0,0,0,0,.15h0v.1c.05,1.08.1,2.08.1,2.15v.08s0,.74,0,1.89a.82.82,0,0,1-.84.83c-1.33,0-3.68-.09-4.28-.16l-.33,0,.36.82.18,0c1-.12,2.92-.17,4.08-.18a.81.81,0,0,1,.83.82c0,.88,0,1.85,0,2.83a.84.84,0,0,1-.85.82c-1.5,0-3.64-.16-4.78-.3l-.34,0,.36,1,.19,0a35.54,35.54,0,0,1,4-.18h.55a.82.82,0,0,1,.82.86c0,1.08-.1,2.13-.19,3a.85.85,0,0,1-.82.75h-.29c-1.3,0-5.39-.15-7.24-.33l-.33,0,.39,1,.18,0c1.52-.17,5.29-.23,6.12-.23h.88a.83.83,0,0,1,.82,1l-.06.33c-.05.3-.1.58-.15.76a12,12,0,0,1-1,2.64c-2.57,5.19-8,7.6-8,7.62a16.19,16.19,0,0,0,9.76-7,13.12,13.12,0,0,0,1.38-3c.09-.33.22-.91.31-1.4a1.55,1.55,0,0,0,0-.21.83.83,0,0,1,.81-.69Z" transform="translate(0 0)"/><path d="M163.87,18.09l0,1.43a.82.82,0,0,1-.82.8l-5,0a.82.82,0,0,1-.83-.86c.1-2.36.12-4.41.12-5.7h0v-.11a1.06,1.06,0,0,1,.17-.55,3.2,3.2,0,0,1,.58-.47c.22-.17.43-.32.48-.45s.05-.18-.05-.24c-.26-.16-3.18-.93-3.65-1.07l-.1,0V11c.06,1.2.11,2.08.12,2.3v.05c0,1.44.08,3.67,0,6.22a.82.82,0,0,1-.83.8l-1.79,0c-1.35,0-3.23-.12-4.46-.25l-.44,0,.48,1.09.25,0c1-.13,2.71-.2,4-.25l1.92,0a.82.82,0,0,1,.83.86c-.08,1.67-.21,3.41-.41,5.12a42.78,42.78,0,0,1-3.16,12.61,36.32,36.32,0,0,1-4,6.29c3.18-2.7,6.61-6.13,8.62-14.75a58.86,58.86,0,0,0,1.2-9.37.82.82,0,0,1,.83-.77l5,0a.84.84,0,0,1,.82.85c-.05,2.3-.11,5.07-.15,6.15-.17,4.15-.9,14.88-3.84,14.51a19.68,19.68,0,0,1-3.91-1.6l2.29,1.92a2.82,2.82,0,0,1,1,2,.3.3,0,0,0,0,.1l.05.21.23,0c.9-.16,3.81-1,4.92-5.35.91-3.67,1.45-10,1.53-17.94v-.15l.15-.06c.29-.11,1.15-.57,1.15-1a33.71,33.71,0,0,0-3.35-2.39" transform="translate(0 0)"/><path d="M194.52,24l-1.72-1.64A20.94,20.94,0,0,1,190.86,24h-4.49a41.81,41.81,0,0,0,5.45-7.76.28.28,0,0,1,.26-.17l.18,0a.37.37,0,0,0,.28,0h0v0A26.62,26.62,0,0,0,191,12l-.07-.16-.78,2.46c0,.05-1.11,3.88-6,9.43a.82.82,0,0,1-.3-.64V18.33a.83.83,0,0,1,.82-.83h3.42c.06,0,.11,0,.13-.05s0-.15,0-.17l-1.17-1.11c-.16.14-.71.62-1.14.94h-1.25a.83.83,0,0,1-.82-.83V13.79a1.41,1.41,0,0,1,.67-1.24,1.33,1.33,0,0,0,.47-.43s0-.11,0-.15c-.26-.16-2.95-.94-3.41-1.08,0,.67.09,1.28.12,1.71s0,1.06,0,1.06v2.62a.83.83,0,0,1-.83.83h-.56s-4-.08-4.81-.18l-.33,0,.36.82.19,0c1.41-.18,4.59-.19,4.59-.19H181a.83.83,0,0,1,.83.83v4.79A.83.83,0,0,1,181,24H178s-4.38-.08-5.23-.18l-.33,0,.36.82.18,0c1.41-.18,5-.19,5-.19h5.67A58.13,58.13,0,0,1,179,28.91l-.31.25-.73-.45-.11-.06.05.59s0,.25,0,.56c-7.67,6.11-18.16,8.48-20.48,9a64.36,64.36,0,0,0,7.66-1.51,47.42,47.42,0,0,0,12.88-6c0,.53,0,1.07,0,1.56L178,39.61c0,1.1-.05,3.26-.09,4.64,0,.56-.07,1.06-.09,1.25l0,.29a.58.58,0,0,0,.06.29.41.41,0,0,0,.28.22h0c.42,0,1.69-.26,1.71-.8,0,0,0-.79,0-1.42a.83.83,0,0,1,.83-.83h6.1a.83.83,0,0,1,.83.83c0,.7,0,1.57,0,1.57s0,0,0,.2.19.23.19.23l.15,0c.38,0,1.68-.11,1.68-.64v-.29c0-.31,0-.7,0-1s0-1.1,0-2.19,0-2.31,0-2.55l0-7.33a1.37,1.37,0,0,1,.3-.87,4.48,4.48,0,0,0,.64-.89v0c-.08-.19-2-2.31-2-2.31l-.93,1.22a1.69,1.69,0,0,1-1.35.66h-5.89a1,1,0,0,1-.24,0,44.24,44.24,0,0,0,6-5.53h8.3a.22.22,0,0,0,.19-.07.36.36,0,0,0,0-.25m-6.93,18.16a.83.83,0,0,1-.83.83h-6.11a.82.82,0,0,1-.82-.84l0-5.21a.83.83,0,0,1,.83-.82h6.1a.83.83,0,0,1,.83.83Zm-6.85-12h6.09a.82.82,0,0,1,.82.83l0,4.09a.83.83,0,0,1-.83.82h-6.1a.83.83,0,0,1-.83-.83l0-3.71V31a.84.84,0,0,1,.83-.8" transform="translate(0 0)"/><path d="M286.29,42.46a9,9,0,0,0-2.41-1.63.8.8,0,0,0-.29,0,6.45,6.45,0,0,1-1.92.21,6.26,6.26,0,0,1-5.39-4.28s-.28,3.32,3.46,5.64a8.52,8.52,0,0,0,4.19,1.22c1.4,0,2.12-.12,2.39-.4a.58.58,0,0,0,0-.78" transform="translate(0 0)"/><path d="M279.75,25.69c1.62-.67,3.4-.66,4-.05a.55.55,0,0,1,.1.62,1.46,1.46,0,0,1-.09.16l-1.1,1.25A11.05,11.05,0,0,0,281.58,29s.78-.71,1.74-1.43,1.95-1.34,2-1.36a1,1,0,0,0,.3-1.47,3.08,3.08,0,0,0-1.76-1.19,4.79,4.79,0,0,0-3.39.28A8.17,8.17,0,0,0,277.14,27a15.1,15.1,0,0,1,2.61-1.34" transform="translate(0 0)"/><path d="M278.35,19.28c0-.3-1.1-.89-1.62-1-.9-.16-.63.18-1.58,1.07a4.67,4.67,0,0,1-1.36.74.35.35,0,0,1-.46-.41c.63-2.47,1.6-5.93,1.64-6.07s.5-.57,0-.95a20.53,20.53,0,0,0-3.17-1.24,5.65,5.65,0,0,1,.69,2.09,46.52,46.52,0,0,1-.64,6.27,1.55,1.55,0,0,1-1.13,1.27,15.63,15.63,0,0,1-2.32.49A2.94,2.94,0,0,1,266.07,20s.77,2.78,2.7,3.31c.52.14,1-.11,1.57-.41.08,0,.26-.13.46-.21a.34.34,0,0,1,.47.38c-.08.38-.67,3.64-1.47,7.23-.94,4.13-2.11,8.66-2.22,9.08a8.16,8.16,0,0,1-1.21,2.4l0,0v0c0,.26,1.1,2.89,1.74,2.78a1.36,1.36,0,0,0,1-1.11c0-.16.2-1.23.42-2.71s.89-6.21,1.61-10.33,1.43-7.28,1.54-7.79a1.5,1.5,0,0,1,.93-1.11l3.09-1.23c.89-.38,1.7-.6,1.7-1.07" transform="translate(0 0)"/><path d="M296.1,34.72c-.87-1.17-2-2.47-3-3.93a12.24,12.24,0,0,1-1.46-2.41c-.53-1.33-.1-1.95.79-3,.15-.16,6.84-7.2,7.53-8,1.15-1.37,1.28-1.74,1.28-2,0-.71-1.16-2.14-2.22-3a3.72,3.72,0,0,0-1.6-.78,3.92,3.92,0,0,1,.55,4.29c-1.15,2.12-5.82,8.68-6.08,9.1a7,7,0,0,0-.9,2,3.4,3.4,0,0,0,.27,1.78,13.12,13.12,0,0,0,.94,1.79c5.06,7.93,6.46,10.26,7.24,13.48.37,1.54.85,1.73,1.24,1.41a5,5,0,0,0,1-2.31c0-2-1.84-3.5-5.5-8.42" transform="translate(0 0)"/><path class="cls-1" d="M115.05,24a10.2,10.2,0,0,0-7.41-2.84h-.1a11.65,11.65,0,0,0-8.47,3.42A12.08,12.08,0,0,0,95.7,33a9.13,9.13,0,0,0,4.89,7.82,1.1,1.1,0,0,0,.56.17c1,0,2.2-1.67,3.92-5.42a43.34,43.34,0,0,0,3.15-11.7.65.65,0,0,1,.64-.57h.1a7.12,7.12,0,0,1,6.25,6,9,9,0,0,1-1.77,6.75,8.07,8.07,0,0,1-5.63,3.18h-.07l0,.06.1.13.05.06c.42.59,1.29,1.81,1.63,2.38l0,0h0a17.27,17.27,0,0,0,3.2-1.74,11.25,11.25,0,0,0,5-9.42A9.67,9.67,0,0,0,115.05,24m-9.33.33A49.31,49.31,0,0,1,104,31.18c-1,2.89-2.55,5.91-3.46,6a1.62,1.62,0,0,1-1.15-.58,6.53,6.53,0,0,1-1.29-4.73,8.82,8.82,0,0,1,6.78-8.22l.17,0a.64.64,0,0,1,.49.23.65.65,0,0,1,.14.52" transform="translate(0 0)"/><path class="cls-1" d="M211,25.81a53.84,53.84,0,0,0,6.87-1l-.12-2.37a52.17,52.17,0,0,1-6.55.92,33.27,33.27,0,0,1-3.66,0l.17,2.41a30.12,30.12,0,0,0,3.29,0" transform="translate(0 0)"/><path class="cls-1" d="M203.78,32.47l0,0A42.59,42.59,0,0,0,201.58,37a.36.36,0,0,1-.38.23.35.35,0,0,1-.32-.29,26.63,26.63,0,0,1-.28-5.5,33.39,33.39,0,0,1,1.23-8.27,2.24,2.24,0,0,1,.86-1.22c.14-.11.23-.18.22-.28s-.07-.13-.24-.21c-.51-.24-1.1-.46-1.91-.77l-1-.36-.06,0v.06a10.93,10.93,0,0,1-.42,2.4,40.76,40.76,0,0,0-1.19,9,26.94,26.94,0,0,0,.9,8.33,8.53,8.53,0,0,0,.82,1.94l.06.11h0s1.09-.21,2.11-.48h0v0a21.63,21.63,0,0,1,3-8.4l0,0-1.26-.69Z" transform="translate(0 0)"/><path class="cls-1" d="M219,37.38a27.08,27.08,0,0,1-6.62.68,3.83,3.83,0,0,1-2.88-1,3.43,3.43,0,0,1-.7-2.15l-2.21.65a6.21,6.21,0,0,0,1.4,3.45,5.34,5.34,0,0,0,4.33,1.53c1.15,0,2.08-.05,3.08-.12,1.84-.12,3.4-.3,3.4-.3l.25-2.68v-.06Z" transform="translate(0 0)"/><path d="M258,15.4a3.14,3.14,0,0,0-2.54-1.09A3.66,3.66,0,0,0,253,15.67a16.63,16.63,0,0,0-2.38,4.53l-.09.22c-.1.24-.22.37-.32.31s-.11-.11,0-.45c.14-.75.33-1.68.53-2.62.14-.71.52-2.2.58-2.43h0a.08.08,0,0,0,0,0h0a4.84,4.84,0,0,0,.18-1.83,3.11,3.11,0,0,0-2.73-2.51,2,2,0,0,1,.69,1,5.77,5.77,0,0,1,.1,1.91c0,.25-.37,4-.55,5.74-.47,4.77-1,10-1,10.2s-.16.8-.16,1a7.63,7.63,0,0,0,1.86,3.8c.3.28.75.14.74-1.14,0-.18-.31-1.9-.4-4a34.4,34.4,0,0,1,.34-6.42c.14-.81.41-1.92.67-2.88.56-2.3,2-4.64,3.91-4.79,2.18-.17,3.72,3.54,3.44,11.52-.6,16.41-8.31,20-6.88,19.36,3-1.34,7.93-5.86,9-16.54.39-3.72.09-11.23-2.53-14.14" transform="translate(0 0)"/><path d="M323.08,14.41a1.23,1.23,0,0,0-.55.21,2.08,2.08,0,0,1-.61.26,45.94,45.94,0,0,0-10.31,3.42c-.85.36-1.55.67-2.29,1a4.2,4.2,0,0,1-1.72.37,3.53,3.53,0,0,1-2.37-.93l-.6-.51h0v0l0,0,.08.71a4.09,4.09,0,0,0,3.41,3.37,1.63,1.63,0,0,0,1-.49,22.51,22.51,0,0,1,7.54-4.37l.86-.31a.42.42,0,0,1,.5.15.29.29,0,0,1,0,.37l-.47.55h0a24,24,0,0,0-3.27,5.64h0a20.49,20.49,0,0,0-1.47,7.4c0,9.17,7.15,12.66,9.38,12.66,1.05,0,0-2.58-.69-3.63a.84.84,0,0,0-1-.28,4.94,4.94,0,0,1-3.5-1.92A14.5,14.5,0,0,1,314.24,30a23.82,23.82,0,0,1,.78-6.37c.17-.54,1.25-3.81,3.41-5.37a12.06,12.06,0,0,1,1.53-.9,7.36,7.36,0,0,1,2.64-.56,9.73,9.73,0,0,1,1.79.22l.14,0,.1,0c.15,0,.67-.06.67-.83,0-1.13-1.3-1.82-2.22-1.82" transform="translate(0 0)"/><path d="M230.52,19.78c1.36-.54,2.57-1,2.72-1.08.89-.38,1.71-.6,1.71-1.07,0-.3-1.11-.89-1.63-1-.9-.17-.63.17-1.57,1.06a3.92,3.92,0,0,1-1,.59.22.22,0,0,1-.3-.27c.66-2.14,1.35-4.37,1.38-4.44s.7-.6.07-1.06A12.83,12.83,0,0,0,229,11.28a6.85,6.85,0,0,1,.71,2.5c-.1,1.11-.26,2.25-.42,3.06L229.09,18a1.61,1.61,0,0,1-1.15,1.26,20,20,0,0,1-3,.66,3,3,0,0,1-2.32-1.52s.78,2.78,2.7,3.31c.66.18,1.2-.27,2.1-.66l.43-.18a.34.34,0,0,1,.46.4c-.34,1.29-.85,3.13-1.4,4.93s-1.2,3.76-1.73,5.18a6.44,6.44,0,0,1-2,2.51s.3.64.54,1.21a5.62,5.62,0,0,0,.41.9.29.29,0,0,0,.23.07c.36,0,.8-.47,1-1.17,1.65-5.74,3.08-10.54,4.16-14.07a1.61,1.61,0,0,1,.94-1" transform="translate(0 0)"/><path d="M237.71,20a5.37,5.37,0,0,0-1.68.21c1.8,0,2.84.56,2.84,1.52a1.35,1.35,0,0,1-.3.87c-1,1.2-1.63,1.81-2.09,2.35h0s-1.25,1.36-1.73,2.05h0c-1.17,1.6-1.35,4.11-1.42,8.33a.46.46,0,0,1-.5.45,4.43,4.43,0,0,0-.55,0c-1.29,0-4.06,0-4.52,3.48-.36,2.73,1.88,6.14,4,6s3.15-3.19,3.3-6.75a.37.37,0,0,1,.59-.3c.33.24.71.53.9.7a21.57,21.57,0,0,1,3.29,4.25c.34.08.4-.4.47-.84a4.68,4.68,0,0,0-.12-1.37,9.09,9.09,0,0,0-4.72-4.41.68.68,0,0,1-.42-.58l0-.39c-.26-3.16-.61-5.49-.27-7.33A4.73,4.73,0,0,1,236,25.72a6.46,6.46,0,0,1,3.89-2,2.15,2.15,0,0,1,.95.07,1.29,1.29,0,0,0,.51.09c.4,0,.56-.17.56-.6,0-1.86-1.81-3.26-4.21-3.26m-6.65,23.07a.88.88,0,0,1-.86,0A5,5,0,0,1,228,39.4a2.58,2.58,0,0,1,1.4-2.58,6.29,6.29,0,0,1,3.34,0,.69.69,0,0,1,.54.73c-.16,1.67-.54,4.48-2.21,5.56" transform="translate(0 0)"/><path d="M69.5,48.77A42.18,42.18,0,0,1,77,54.28a.82.82,0,0,1-.48,1.41c-2.33.26-6.6.71-8.51.88-11.1,1-27.75,2.29-36.45,2.29l-6.58-.12L30.05,65s.2.29.41.17.75-2,.75-2,39-5.74,46.63-6.84a2.77,2.77,0,0,1,2.27.7c1.48,1.33,4.22,3.79,5.64,5.11S88.23,64,89,64a.64.64,0,0,0,.71-.54A8.21,8.21,0,0,0,88.38,58c-3-3.9-11.45-8.57-18.88-9.21" transform="translate(0 0)"/><path d="M98.64,18.67c-.36,0-1-.14-1-.14-1.38-.21-3-.56-4.87-1C83.86,15.29,70.54,10.5,62.33,6c1.92,2.21,8.85,7,12,8.72a153.7,153.7,0,0,0,15.37,7.58c.36.13,1.83.72,2.23.52.84-.42,2.62-1.86,3.57-2.4a28.81,28.81,0,0,1,3.41-1.5c.17-.09.09-.16-.22-.2" transform="translate(0 0)"/><path d="M79.28,26.9c.92-.26,1.6-.45,1.65-.74s-7.19-3.67-7.19-3.67a19.84,19.84,0,0,1-2.69,2A3.46,3.46,0,0,1,69,25H55.24c-.1,0-10.51-.09-16.84-.36l-1.09-.05.92,1.34.81,0c5.58-.24,16.32-.27,16.42-.27l12.6.08A.82.82,0,0,1,68.69,27l-7,8.48a3.31,3.31,0,0,1-2.56,1.2H54.77c-6.1-.07-16-.17-18.58-.3l-1.12-.06L36.13,38l.86-.05c5.44-.35,10.34-.4,14.83-.4H89.09c.22,0,.25-.12.26-.17s.11-.44.11-.44L84,33.07l-4.48,3.75H67.39a.65.65,0,0,1-.4-1.17s10.27-7.81,10.74-8.12a6.88,6.88,0,0,1,1.55-.62" transform="translate(0 0)"/><path d="M6.18,58.84v-.25c0-2.64-.07-5.48-.07-8.66V4.84H19.61a1.26,1.26,0,0,1,1.25.81c.5,1.52-6.16,14.7-12.54,24.68,7.5-7.16,16.9-23.16,17.28-23.74a2.23,2.23,0,0,1,1.07-1c1.09-.54,1.68-.58.92-1.13a28.58,28.58,0,0,0-5.17-2.93,8.1,8.1,0,0,1-1,2.46,1.79,1.79,0,0,1-1,.27L6.5,4.28,0,1.82A15,15,0,0,1,1.7,5.17a46.2,46.2,0,0,1,.23,4.92v40c0,5.14-.23,10.56-.34,11.41,0,.52-.27,3-.35,3.64v.14a.66.66,0,0,0,.14.5c.14.16.91.21.91.21a7.66,7.66,0,0,0,3.84-.74c.21-.13.36-.26.34-.53a24.78,24.78,0,0,1-.26-2.78c0-.72,0-1.77,0-3.08" transform="translate(0 0)"/><path d="M24.56,34.89a19.52,19.52,0,0,0-5.63-5h0c-3.32-1.86-1.49-6.62-1.49-6.62l-4.05,5.5c2.48.92,7.2,3.3,8.75,6s1.82,6.59.43,9a9.78,9.78,0,0,1-4,3.81c-4.62,2.3-10.86,0-10.86,0s5.64,2.77,7.34,4.35a3.44,3.44,0,0,1,1,2.08.63.63,0,0,0,.72.55l.26,0c4.13-.61,10.32-3.72,10.32-11.25a14.42,14.42,0,0,0-2.8-8.38" transform="translate(0 0)"/><path d="M35.32,20.46a77.14,77.14,0,0,0,18.93-11c1.53-1.24,3-2.51,4-3.44l.84-.8C60.71,3.59,62.36,2.89,63.85,3c.35,0,.51,0,.29-.14A52.8,52.8,0,0,0,57.32,0a4.44,4.44,0,0,1-.25.83c-.7,1.8-3.41,6.43-13.67,13-2.71,1.7-6.23,3.69-9.19,5.19a74.48,74.48,0,0,1-12.55,5.15,56,56,0,0,0,13.66-3.68" transform="translate(0 0)"/><path d="M88.34,45.79H53c-7.35,0-14-.14-19.76-.42l-1.1-.06,1,1.6.86,0c3.55-.22,8.28-.33,13-.37h.93a.83.83,0,0,1,.81.65c.44,1.66-11,10.74-11,10.74S42.79,56.44,53.79,48a6.68,6.68,0,0,1,4-1.52H97.9c.23,0,.25-.12.27-.18l.11-.44L92.84,42Z" transform="translate(0 0)"/><path d="M66.52,17.85H58.3c-4.48,0-8.19-.1-11.36-.29l-1-.06.73,1.12.83-.05c2-.1,4.06-.1,9.7-.1l17.3,0h0c.18,0,.21-.1.22-.15s.09-.36.09-.36l-4.53-3.19Z" transform="translate(0 0)"/><path d="M121.36,46.1h-.07l-1.26.06h-7.36l-1.26-.06h-.07c-.1.44-.54,2-.7,2.84.78-1.49,1.56-2.54,2.15-2.75h2a1,1,0,0,1,.32.06.84.84,0,0,1,.46.7c0,.45,0,1.08,0,2.08v4.5a7.51,7.51,0,0,1-.17,2.2,1.44,1.44,0,0,1-1.34.68h4.53a1.44,1.44,0,0,1-1.34-.68,11.76,11.76,0,0,1-.17-3.21V49a19.32,19.32,0,0,1,.07-2.14.82.82,0,0,1,.45-.64.89.89,0,0,1,.32-.06h2c.6.21,1.38,1.26,2.15,2.75-.16-.84-.59-2.4-.69-2.84" transform="translate(0 0)"/><path d="M124.61,55.88a.47.47,0,0,1-.18.25.47.47,0,0,0,.18-.25" transform="translate(0 0)"/><path d="M124,56.34a1.75,1.75,0,0,0,.32-.12,1.75,1.75,0,0,1-.32.12" transform="translate(0 0)"/><path d="M124.67,55.05v0" transform="translate(0 0)"/><path d="M124.68,54.41v0" transform="translate(0 0)"/><path d="M124.69,53.84v0" transform="translate(0 0)"/><polygon points="138.37 52.67 137.99 52.84 138.01 52.87 138.39 52.71 138.37 52.67"/><path d="M130.31,55.71c0,.5-.6.62-1,.7h3.39c-.41-.08-1-.17-1-.7s0-1,0-3.12-1-3.2-3-2.93a3.55,3.55,0,0,0-2.55,1.92V49.71c0-1.43,0-2.62.17-4.09a19.08,19.08,0,0,1-3,.49c1.1,0,1.39.31,1.39,1.07v6.61s0,.14,0,.35v.58c0,.11,0,.22,0,.33,0,.26,0,.51,0,.66a.47.47,0,0,1,0,.17.47.47,0,0,1-.18.25.55.55,0,0,1-.14.09,1.75,1.75,0,0,1-.32.12l-.33.07h3.55c-.41-.08-1-.17-1-.7,0-.06,0-.14,0-.21,0-.3,0-.68,0-1s0-.5,0-.69V53a3.45,3.45,0,0,1,.29-1.75,2.92,2.92,0,0,1,2.33-1.3c1.67,0,1.6,1.59,1.6,2.56s0,2.74-.05,3.24" transform="translate(0 0)"/><path d="M139.89,49.89a3.47,3.47,0,0,0-1.68-.35,5,5,0,0,0-1.61.28,3.33,3.33,0,0,0-2.29,3.41c0,2.26,2,3.5,4.2,3.39a4,4,0,0,0,2.68-1.09,4.85,4.85,0,0,1-2.72.82c-1.33-.06-2.74-1.13-2.74-3.37a3.72,3.72,0,0,1,1.1-2.78,2.15,2.15,0,0,1,1.15-.61,1.47,1.47,0,0,1,1.22.33,2,2,0,0,1,.67,1.21c.06.32,0,.86-.38,1l-2.17,1,0,0,3.94-1.73a.1.1,0,0,0,.06-.12,3.46,3.46,0,0,0-1.45-1.43" transform="translate(0 0)"/><path d="M274.11,55.71c0,.5-.6.62-1,.7h3.39c-.41-.08-1-.17-1-.7s0-1,0-3.12-1-3.2-3-2.93a3.55,3.55,0,0,0-2.55,1.92V49.71c0-1.43,0-2.62.17-4.09a19,19,0,0,1-3,.49c1.11,0,1.39.31,1.39,1.07v7.23c0,.1,0,.21,0,.31v.33c0,.26,0,.51,0,.66a.85.85,0,0,1,0,.17.48.48,0,0,1-.19.25.42.42,0,0,1-.14.09,1.75,1.75,0,0,1-.32.12l-.32.07H271c-.41-.08-1-.17-1-.7a1.41,1.41,0,0,1,0-.21c0-.3,0-.68,0-1V53a3.54,3.54,0,0,1,.28-1.75,2.94,2.94,0,0,1,2.34-1.3c1.66,0,1.6,1.59,1.6,2.56s0,2.74-.05,3.24" transform="translate(0 0)"/><path d="M284.74,56.25c-.39-.26-.36-.93-.36-1.51,0-.91.1-2.63.1-3.31,0-1-.79-1.82-2.52-1.85h0a3,3,0,0,0-.4,0h0a3.44,3.44,0,0,0-1.34.37h0a1.89,1.89,0,0,0-.92.77.89.89,0,0,0,.22,1.12.42.42,0,0,0,.53-.19.89.89,0,0,0,0-.78.88.88,0,0,1-.09-.38.67.67,0,0,1,.31-.51,3,3,0,0,1,1.9-.32c.77.2.9.81.9,1.82v.39l-2.47,1.26c-.51.26-2,.94-2,2,0,1.44,1.47,1.46,1.94,1.46a3.54,3.54,0,0,0,.66-.06h0l.26-.07.14,0,.14,0h0a8.13,8.13,0,0,0,1.34-.72c.23,1,1,.89,1.44.89a4.15,4.15,0,0,0,1.16-.22,1.48,1.48,0,0,1-.92-.08m-4.16.24c-.61-.1-.89-.57-.89-1.55a1.86,1.86,0,0,1,.7-1.67L283,51.92c0,.76,0,1.65,0,3.06a2.86,2.86,0,0,0,.06.63,4.31,4.31,0,0,1-2.47.88" transform="translate(0 0)"/><path d="M264.77,53.23a8,8,0,0,0-1.72-1,6.48,6.48,0,0,1-1.47-.87,1.08,1.08,0,0,1-.42-.84,1.12,1.12,0,0,1,.47-.92,2,2,0,0,1,1.16-.3,1.91,1.91,0,0,1,.91.2,2.09,2.09,0,0,1,.59.51,2,2,0,0,1,.39.68.91.91,0,0,0,.06.16,7.53,7.53,0,0,1-.05-.89,3.43,3.43,0,0,1,0-.41,2.9,2.9,0,0,1,0-.29c-.07.29-.23.35-.36.35a1.26,1.26,0,0,1-.37-.09,3.8,3.8,0,0,0-1.26-.25,2.79,2.79,0,0,0-1.8.57,1.64,1.64,0,0,0-.7,1.36,2,2,0,0,0,.42,1.26,4.65,4.65,0,0,0,1.76,1.18,8.46,8.46,0,0,1,1.44.77,1,1,0,0,1,.33.78,1.35,1.35,0,0,1-.47,1,2.66,2.66,0,0,1-2.64-.08l0,0a2.07,2.07,0,0,1-.81-1.28,1.29,1.29,0,0,0-.1-.33v0s0,.18,0,.41,0,.28,0,.49a4.61,4.61,0,0,1-.05.68c0,.12,0,.22-.05.3a.42.42,0,0,1,.38-.3,1,1,0,0,1,.21,0l.45.14h0a4,4,0,0,0,1.64.28,3.73,3.73,0,0,0,1.84-.59,1.82,1.82,0,0,0,.74-1.5,1.54,1.54,0,0,0-.58-1.25" transform="translate(0 0)"/><path d="M302.37,49.73h0a3.55,3.55,0,0,0-1.28-.12,3.4,3.4,0,0,0-1.9.69,3.64,3.64,0,0,0-1.55,2.86,3.51,3.51,0,0,0,3.63,3.47A3.68,3.68,0,0,0,305,53.15a3.55,3.55,0,0,0-2.59-3.42m-1.09,6.85c-1.2,0-2.18-.78-2.18-3.47s1-3.47,2.18-3.47,2.19.78,2.19,3.47-1,3.47-2.19,3.47" transform="translate(0 0)"/><path d="M316.41,49.6h-.2l.44.07a1.13,1.13,0,0,1,.87,1.63l-1.84,4.19-.13-.26c-.69-1.45-1.64-3.59-2.14-4.8-.12-.28-.17-.53.13-.68a2.33,2.33,0,0,1,.56-.15h-3.39c.41.08.8.08,1.07.7,0,0,.81,1.72.82,1.72l-1.53,3.48-.11-.22c-.55-1.19-1.85-4-2.24-5-.26-.62.5-.68.65-.71H306c.41.08.8.08,1.07.7l.77,1.63h0l0,.05h0L310,56.53l.43-.31a2.92,2.92,0,0,1,.76-.42.8.8,0,0,1,.05-.61l1.37-3.11c.43,1,2,4.43,2,4.43s.32-.24.66-.46a1.65,1.65,0,0,1,.53-.26.8.8,0,0,1,.05-.61s1.34-3.08,1.86-4.26a4.64,4.64,0,0,1,.48-.85,1.35,1.35,0,0,1,1.06-.45h-2.86Z" transform="translate(0 0)"/><path d="M294.69,54.89V49.71c0-1.43.05-2.62.17-4.09h0a18.35,18.35,0,0,1-2.95.49c1.1,0,1.38.31,1.38,1.07v3.33a3.85,3.85,0,0,0-1.27-.67,3.66,3.66,0,0,0-2.55.19,3.57,3.57,0,0,0-2.11,3.26,3.21,3.21,0,0,0,3.43,3.33,3.1,3.1,0,0,0,2.52-1.29,7,7,0,0,0,.05,1.18c.39-.08,2.4-.27,2.94-.34-1.39,0-1.61-.41-1.61-1.28m-1.5.11a2.69,2.69,0,0,1-.56.93,2.34,2.34,0,0,1-1.61.55c-1.89,0-2.11-1.25-2.11-3.36,0-1.73.39-3,1.62-3.33a2.59,2.59,0,0,1,2.17.5,1.57,1.57,0,0,1,.47.56,6.09,6.09,0,0,1,.11,1.61v.75a7.06,7.06,0,0,1-.09,1.79" transform="translate(0 0)"/><path d="M215,53a3.44,3.44,0,0,1,1.53-3,2.29,2.29,0,0,1,1.35-.34,2.59,2.59,0,0,1,.64.11c.55.19.79.53.8.83,0,.61.1,1,.45,1s.61-.34.43-.83-1.11-1.25-3-1.12c-1.68.11-3.66,1-3.66,3.66,0,2.26,1.79,3.5,4,3.39a3.65,3.65,0,0,0,2.62-1.09,4.61,4.61,0,0,1-2.66.82C216.13,56.29,215,55.22,215,53" transform="translate(0 0)"/><path d="M155.94,56.36h-1.66a4.94,4.94,0,0,1-.64,0,1.36,1.36,0,0,1-.84-.62,11.64,11.64,0,0,1-.17-3.2V51.6c0-.12,0-.57.62-.57H155a2,2,0,0,1,1.75,1.6l0-3.26A2.24,2.24,0,0,1,154.81,51h-1.56c-.4,0-.62-.17-.62-.47V50a11.64,11.64,0,0,1,.17-3.2,1.25,1.25,0,0,1,.85-.61,1.39,1.39,0,0,1,.32,0h2.19a3,3,0,0,1,2.5,1.89c-.07-.7-.2-1.45-.29-1.93h-8.68a1.45,1.45,0,0,1,1.34.68,7.34,7.34,0,0,1,.16,2.2v4.75a6.29,6.29,0,0,1-.16,2,1.44,1.44,0,0,1-1.34.69h9c.12-.43.31-1.25.51-2.07a3.4,3.4,0,0,1-3.22,2" transform="translate(0 0)"/><path d="M199.36,49.89a3.47,3.47,0,0,0-1.68-.35,4.85,4.85,0,0,0-1.6.28,3.32,3.32,0,0,0-2.29,3.41c0,2.26,2,3.5,4.19,3.39a4,4,0,0,0,2.68-1.09,4.85,4.85,0,0,1-2.72.82c-1.32-.06-2.74-1.13-2.74-3.37a3.72,3.72,0,0,1,1.1-2.78,2.15,2.15,0,0,1,1.15-.61,1.47,1.47,0,0,1,1.22.33,2,2,0,0,1,.67,1.21c.06.32,0,.86-.37,1l-2.17,1v0l3.94-1.73a.1.1,0,0,0,.06-.12,3.46,3.46,0,0,0-1.45-1.43" transform="translate(0 0)"/><path d="M228,49.89a3.51,3.51,0,0,0-1.69-.35,4.9,4.9,0,0,0-1.6.28,3.33,3.33,0,0,0-2.29,3.41c0,2.26,2,3.5,4.2,3.39a4,4,0,0,0,2.68-1.09,4.87,4.87,0,0,1-2.72.82c-1.33-.06-2.75-1.13-2.75-3.37a3.69,3.69,0,0,1,1.11-2.78,2.11,2.11,0,0,1,1.15-.61,1.48,1.48,0,0,1,1.22.33,2,2,0,0,1,.66,1.21c.06.32,0,.86-.37,1l-2.17,1,0,0,3.94-1.73a.1.1,0,0,0,.06-.12A3.52,3.52,0,0,0,228,49.89" transform="translate(0 0)"/><path d="M174,55.71V52.33a2.84,2.84,0,0,0-.62-2,2.44,2.44,0,0,0-1.88-.71,3.09,3.09,0,0,0-2.37,1.4c-.1.13-.27.38-.27.38a2.31,2.31,0,0,0-2.42-1.78,2.89,2.89,0,0,0-2.57,1.84s0-.56,0-.91,0-.6.06-.92a15.45,15.45,0,0,1-2.81.5c1.1.05,1.39.31,1.39,1.07v2.57s0,1.74,0,1.92c0,.5-.6.62-1,.7H165c-.41-.08-1-.17-1-.7,0-.05,0-3.27,0-3.27a3.37,3.37,0,0,1,.08-1,2.4,2.4,0,0,1,2.52-1.62c1.36.27,1.23,1.89,1.23,2.46V53.8s0,1.73,0,1.91c0,.5-.6.62-1,.7H170c-.41-.08-1-.17-1-.7,0-.05,0-2.62,0-2.62a4.37,4.37,0,0,1,.17-1.93,2.48,2.48,0,0,1,2.33-1.3c1.41.16,1.26,2,1.26,2.46s0,3.21,0,3.39c0,.5-.6.62-1,.7h3.35c-.41-.08-1-.17-1-.7" transform="translate(0 0)"/><path d="M179.29,48.41a.69.69,0,1,1,0-1.37.7.7,0,0,1,.71.69.71.71,0,0,1-.71.68" transform="translate(0 0)"/><path d="M179.89,55.71c0-.52,0-1.41,0-1.91,0-1.29,0-2.81,0-3.32a2,2,0,0,1,.12-.91,17.51,17.51,0,0,1-2.88.49c1.1,0,1.39.31,1.39,1.07v2.66s0,1.42,0,1.92-.58.62-1,.7h3.41c-.41-.08-1-.17-1-.7" transform="translate(0 0)"/><path d="M189.67,55.71c0,.5-.6.62-1,.7h3.39c-.41-.08-1-.17-1-.7s0-1,0-3.12-1-3.2-3-2.93a3.48,3.48,0,0,0-2.45,1.74c0-.24,0-.66,0-.88s0-.52.06-.8a14.25,14.25,0,0,1-2.76.49c1.11.06,1.39.32,1.39,1.07,0,.39,0,1.77,0,2.93h0c0,.46,0,1.17,0,1.49,0,.5-.6.62-1,.7h3.42c-.41-.08-1-.17-1-.7s0-1.42,0-1.92V52.64c0-.16,0-.37,0-.51a3.29,3.29,0,0,1,.07-.73.57.57,0,0,1,.09-.24,2.94,2.94,0,0,1,2.3-1.25c1.67,0,1.6,1.59,1.6,2.56s0,2.74-.05,3.24" transform="translate(0 0)"/><path d="M209.28,55.71c0,.5-.6.62-1,.7h3.39c-.41-.08-1-.17-1-.7s0-1,0-3.12-1-3.2-3-2.93a3.48,3.48,0,0,0-2.45,1.74c0-.24,0-.66,0-.88s0-.52.06-.8a14.25,14.25,0,0,1-2.76.49c1.11.06,1.39.32,1.39,1.07,0,.39,0,1.77,0,2.93h0c0,.46,0,1.17,0,1.49,0,.5-.59.62-1,.7h3.43c-.41-.08-1-.17-1-.7s0-1.42,0-1.92V52.64c0-.16,0-.37,0-.51a2.76,2.76,0,0,1,.07-.73.57.57,0,0,1,.09-.24,2.94,2.94,0,0,1,2.3-1.25c1.67,0,1.6,1.59,1.6,2.56s0,2.74-.05,3.24" transform="translate(0 0)"/><path d="M239.35,48.41a.69.69,0,1,1,0-1.37.7.7,0,0,1,.72.69.71.71,0,0,1-.72.68" transform="translate(0 0)"/><path d="M240,55.71c0-.52,0-1.41,0-1.91,0-1.29,0-2.81,0-3.32a2.14,2.14,0,0,1,.11-.91,17.21,17.21,0,0,1-2.87.49c1.1,0,1.39.31,1.39,1.07v2.66s0,1.42,0,1.92-.58.62-1,.7H241c-.41-.08-1-.17-1-.7" transform="translate(0 0)"/><path d="M249.75,55.71c0,.5-.6.62-1,.7h3.39c-.41-.08-1-.17-1-.7s0-1,0-3.12-1-3.2-3-2.93a3.45,3.45,0,0,0-2.45,1.74c0-.24,0-.66,0-.88s0-.52.06-.8a14,14,0,0,1-2.75.49c1.1.06,1.39.32,1.39,1.07,0,.39,0,1.77,0,2.93h0c0,.46,0,1.17,0,1.49,0,.5-.59.62-1,.7h3.43c-.41-.08-1-.17-1-.7s0-1.42,0-1.92V52.64c0-.16,0-.37,0-.51a3.48,3.48,0,0,1,.06-.73.71.71,0,0,1,.1-.24,2.94,2.94,0,0,1,2.3-1.25c1.67,0,1.6,1.59,1.6,2.56s0,2.74-.05,3.24" transform="translate(0 0)"/></svg>